# Blender v2.79 (sub 0) OBJ File: 'tank_particle.blend'
# www.blender.org
o Cube.001_Cube.002
v -0.501759 -0.513830 0.049853
v 0.020047 -0.183521 0.495272
v -0.449656 0.104970 -0.020718
v -0.109330 0.385653 0.516248
v 0.190084 -0.488548 -0.456505
v 0.512060 -0.134600 0.154345
v 0.034031 0.232870 -0.602284
v 0.517567 0.397833 -0.113988
v 0.653875 -0.259929 0.152161
v -0.068991 -0.383687 0.356933
v 0.240412 -0.236693 -0.315938
v -0.360786 -0.529892 -0.127439
v 0.352592 0.534304 0.270936
v -0.310212 0.161941 0.426249
v 0.038408 0.497173 -0.411675
v -0.566150 0.333989 -0.084058
vt 0.805375 0.296565
vt 0.990004 0.440807
vt 0.804582 0.502060
vt 0.551037 0.546262
vt 0.771889 0.762891
vt 0.536618 0.761783
vt 0.550506 0.222622
vt 0.749410 0.008459
vt 0.801109 0.222621
vt 0.261934 0.248191
vt 0.017888 0.059914
vt 0.261934 0.008459
vt 0.494892 0.044739
vt 0.281926 0.249366
vt 0.292034 0.008459
vt 0.201802 0.991541
vt 0.019304 0.796204
vt 0.201802 0.752303
vt 0.468053 0.747148
vt 0.289177 0.602484
vt 0.468053 0.533330
vt 0.297718 0.301593
vt 0.516626 0.516412
vt 0.281926 0.516412
vt 0.258210 0.735385
vt 0.009996 0.568779
vt 0.258210 0.523446
vt 0.257690 0.506528
vt 0.017251 0.315256
vt 0.257690 0.265109
vt 0.580061 0.479069
vt 0.784590 0.269827
vt 0.784590 0.502060
vt 0.983675 0.769279
vt 0.801308 0.577587
vt 0.983675 0.518978
vt 0.990004 0.244899
vt 0.771889 0.518978
vt 0.564028 0.028214
vt 0.009996 0.228447
vt 0.530514 0.249366
vt 0.009996 0.964254
vt 0.281926 0.795132
vt 0.516271 0.266284
vt 0.023508 0.724497
vt 0.009996 0.484473
vt 0.536618 0.266284
vt 0.791881 0.741782
vn -0.6924 0.1390 0.7080
vn -0.2926 0.9557 -0.0331
vn 0.8604 0.0846 -0.5025
vn 0.2802 -0.8985 0.3380
vn -0.5891 -0.0424 -0.8070
vn 0.6660 0.3302 0.6689
vn 0.1232 -0.9798 -0.1574
vn -0.4152 -0.2291 -0.8804
vn -0.4543 0.8761 0.1615
vn 0.2784 -0.0379 0.9597
vn 0.7082 0.3595 -0.6077
vn -0.8986 -0.2323 0.3723
vn -0.7775 -0.1987 0.5967
vn -0.3028 0.9098 -0.2837
vn 0.7254 -0.3158 -0.6116
vn 0.3239 -0.8826 0.3407
vn -0.7056 -0.2838 -0.6493
vn 0.5603 0.0971 0.8226
vn 0.4399 -0.8980 0.0061
vn -0.2898 -0.0209 -0.9568
vn -0.0642 0.9355 0.3476
vn 0.2378 -0.0182 0.9711
vn 0.8879 0.1898 -0.4190
vn -0.7300 -0.3937 0.5586
s off
f 2/1/1 3/2/1 1/3/1
f 3/4/2 8/5/2 7/6/2
f 7/7/3 6/8/3 5/9/3
f 5/10/4 2/11/4 1/12/4
f 3/13/5 5/14/5 1/15/5
f 4/16/6 6/17/6 8/18/6
f 10/19/7 11/20/7 9/21/7
f 11/22/8 16/23/8 15/24/8
f 15/25/9 14/26/9 13/27/9
f 13/28/10 10/29/10 9/30/10
f 11/31/11 13/32/11 9/33/11
f 12/34/12 14/35/12 16/36/12
f 2/1/13 4/37/13 3/2/13
f 3/4/14 4/38/14 8/5/14
f 7/7/15 8/39/15 6/8/15
f 5/10/16 6/40/16 2/11/16
f 3/13/17 7/41/17 5/14/17
f 4/16/18 2/42/18 6/17/18
f 10/19/19 12/43/19 11/20/19
f 11/22/20 12/44/20 16/23/20
f 15/25/21 16/45/21 14/26/21
f 13/28/22 14/46/22 10/29/22
f 11/31/23 15/47/23 13/32/23
f 12/34/24 10/48/24 14/35/24
