# Blender v2.79 (sub 0) OBJ File: 'tank_4_pieces.blend'
# www.blender.org
#mtllib tank_head.mtl
o Cylinder.002_Cylinder.000
v 0.000000 0.003398 0.563274
v 0.000000 0.336517 0.550893
v -0.085973 0.003398 0.560558
v -0.076213 0.336517 0.548572
v -0.171268 0.003398 0.556946
v -0.151824 0.336517 0.545486
v -0.253319 0.003398 0.545549
v -0.224560 0.336517 0.535748
v -0.329758 0.003398 0.513847
v -0.292320 0.336517 0.508662
v -0.398404 0.003398 0.481383
v -0.353173 0.336517 0.480925
v -0.457312 0.003398 0.415806
v -0.405393 0.336517 0.424894
v -0.504815 0.003398 0.342274
v -0.447503 0.336517 0.362068
v -0.539573 0.003398 0.262598
v -0.478315 0.336517 0.293992
v -0.560610 0.003398 0.178740
v -0.496964 0.336517 0.222343
v -0.567597 0.003398 0.016356
v -0.503158 0.336517 0.083600
v -0.559879 0.003398 -0.129444
v -0.496316 0.336517 -0.040973
v -0.537344 0.003398 -0.253044
v -0.476339 0.336517 -0.146579
v -0.500900 0.003398 -0.363522
v -0.444033 0.336517 -0.240973
v -0.451747 0.003398 -0.461874
v -0.400460 0.336517 -0.325006
v -0.391409 0.003398 -0.547530
v -0.346972 0.336517 -0.398191
v -0.321678 0.003398 -0.619497
v -0.285158 0.336517 -0.459681
v -0.244419 0.003398 -0.676737
v -0.216670 0.336517 -0.508587
v -0.161613 0.003398 -0.718333
v -0.143265 0.336517 -0.544128
v -0.081814 0.003398 -0.743585
v -0.072525 0.336517 -0.565703
v 0.000000 0.003398 -0.752052
v 0.000000 0.336517 -0.572937
v 0.081814 0.003398 -0.743585
v 0.072526 0.336517 -0.565703
v 0.161614 0.003398 -0.718333
v 0.143266 0.336517 -0.544128
v 0.244419 0.003398 -0.676736
v 0.216670 0.336517 -0.508587
v 0.321678 0.003398 -0.619497
v 0.285158 0.336517 -0.459681
v 0.391409 0.003398 -0.547529
v 0.346972 0.336517 -0.398191
v 0.451747 0.003398 -0.461873
v 0.400460 0.336517 -0.325005
v 0.500900 0.003398 -0.363521
v 0.444033 0.336517 -0.240972
v 0.537344 0.003398 -0.253044
v 0.476339 0.336517 -0.146579
v 0.559879 0.003398 -0.129443
v 0.496316 0.336517 -0.040973
v 0.567598 0.003398 0.016357
v 0.503158 0.336517 0.083600
v 0.560609 0.003398 0.178741
v 0.496963 0.336517 0.222343
v 0.539573 0.003398 0.262598
v 0.478315 0.336517 0.293992
v 0.504815 0.003398 0.342274
v 0.447503 0.336517 0.362068
v 0.457312 0.003398 0.415806
v 0.405393 0.336517 0.424895
v 0.398404 0.003398 0.481384
v 0.353173 0.336517 0.480925
v 0.329757 0.003398 0.513848
v 0.292320 0.336517 0.508663
v 0.253319 0.003398 0.545549
v 0.224559 0.336517 0.535749
v 0.171267 0.003398 0.556946
v 0.151823 0.336517 0.545486
v 0.085972 0.003398 0.560558
v 0.076212 0.336517 0.548572
vt 0.601469 0.160391
vt 1.000000 0.197297
vt 0.601469 0.197297
vt 1.000000 0.233750
vt 0.601469 0.233750
vt 1.000000 0.268850
vt 0.601469 0.268850
vt 1.000000 0.301734
vt 0.601469 0.301734
vt 1.000000 0.331592
vt 0.601469 0.331592
vt 1.000000 0.357689
vt 0.601469 0.357689
vt 0.601469 1.000000
vt 0.639765 0.689281
vt 0.639765 1.000000
vt 0.681942 0.689281
vt 0.681943 1.000000
vt 0.726962 0.689281
vt 0.726962 1.000000
vt 0.773716 0.689281
vt 0.773716 1.000000
vt 0.821053 0.689281
vt 0.821053 1.000000
vt 0.867807 0.689281
vt 0.867807 1.000000
vt 0.912826 0.689281
vt 0.912827 1.000000
vt 0.955004 0.689281
vt 0.955004 1.000000
vt 0.993300 0.689281
vt 0.993300 1.000000
vt 0.601469 0.357689
vt 1.000000 0.387547
vt 0.601469 0.387547
vt 1.000000 0.420431
vt 0.601469 0.420431
vt 1.000000 0.455531
vt 0.601469 0.455531
vt 1.000000 0.491983
vt 0.601469 0.491983
vt 1.000000 0.528890
vt 0.601469 0.528890
vt 0.601469 0.565342
vt 1.000000 0.565342
vt 0.601469 0.600442
vt 1.000000 0.600442
vt 0.601469 0.633326
vt 1.000000 0.633326
vt 0.601469 0.663184
vt 1.000000 0.663184
vt 0.601469 0.689281
vt 0.000000 0.800534
vt 0.398531 0.770676
vt 0.398531 0.800534
vt 0.000000 0.770676
vt 0.398531 0.737792
vt 0.000000 0.737792
vt 0.398531 0.702692
vt 0.000000 0.702692
vt 0.398531 0.666240
vt 0.000000 0.666240
vt 0.398531 0.629333
vt 0.000000 0.629333
vt 0.398531 0.592881
vt 0.000000 0.592881
vt 0.398531 0.557781
vt 0.000000 0.557781
vt 0.398531 0.524897
vt 0.000000 0.524897
vt 0.398531 0.495039
vt 0.000000 0.495039
vt 0.398531 0.468942
vt 1.000000 0.000000
vt 0.601469 0.026097
vt 0.601469 0.000000
vt 1.000000 0.026097
vt 0.601469 0.055955
vt 1.000000 0.055955
vt 0.601469 0.088839
vt 0.496650 0.413316
vt 0.324403 0.468942
vt 0.185293 0.017178
vt 1.000000 0.088839
vt 0.601469 0.123939
vt 1.000000 0.123939
vt 1.000000 0.160391
vt 0.601469 0.689281
vt 1.000000 0.357689
vt 1.000000 0.689281
vt 0.000000 0.468942
vt 0.104819 0.055626
vt 0.143116 0.033933
vt 0.022033 0.324476
vt 0.143115 0.435009
vt 0.230312 0.463169
vt 0.277066 0.468942
vt 0.230312 0.005773
vt 0.594064 0.289376
vt 0.277066 0.000000
vt 0.579436 0.144465
vt 0.601469 0.252924
vt 0.324403 0.000000
vt 0.371157 0.005773
vt 0.416176 0.017178
vt 0.458354 0.033933
vt 0.496650 0.055626
vt 0.530122 0.081723
vt 0.557946 0.111581
vt 0.594064 0.179566
vt 0.601469 0.216018
vt 0.579436 0.324477
vt 0.557946 0.357361
vt 0.530122 0.387219
vt 0.458354 0.435009
vt 0.416176 0.451764
vt 0.371157 0.463169
vt 0.185292 0.451764
vt 0.104819 0.413315
vt 0.071347 0.387219
vt 0.043523 0.357360
vt 0.007405 0.289376
vt 0.043524 0.111581
vt 0.000000 0.252924
vt 0.000000 0.216017
vt 0.007405 0.179565
vt 0.022033 0.144465
vt 0.071347 0.081723
vn -0.0000 0.0369 0.9993
vn -0.0356 0.0371 0.9987
vn -0.0369 0.0369 0.9986
vn -0.0853 0.0394 0.9956
vn -0.0913 0.0391 0.9951
vn -0.2481 0.0504 0.9674
vn -0.2671 0.0501 0.9624
vn -0.3920 0.0598 0.9180
vn -0.4053 0.0584 0.9123
vn -0.5722 0.0803 0.8162
vn -0.6050 0.0813 0.7921
vn -0.7764 0.1063 0.6212
vn -0.7928 0.1054 0.6004
vn -0.8646 0.1218 0.4875
vn -0.8773 0.1219 0.4642
vn -0.9311 0.1412 0.3365
vn -0.9391 0.1423 0.3128
vn -0.9735 0.1666 0.1565
vn -0.9767 0.1690 0.1325
vn -0.9818 0.1901 0.0008
vn -0.9813 0.1923 -0.0109
vn -0.9709 0.2136 -0.1080
vn -0.9681 0.2184 -0.1231
vn -0.9400 0.2465 -0.2361
vn -0.9347 0.2526 -0.2500
vn -0.8866 0.2839 -0.3651
vn -0.8799 0.2906 -0.3761
vn -0.8113 0.3229 -0.4873
vn -0.8041 0.3294 -0.4949
vn -0.7156 0.3610 -0.5980
vn -0.7088 0.3669 -0.6025
vn -0.6012 0.3963 -0.6939
vn -0.5953 0.4012 -0.6961
vn -0.4698 0.4270 -0.7727
vn -0.4651 0.4307 -0.7734
vn -0.3320 0.4501 -0.8290
vn -0.3300 0.4524 -0.8285
vn -0.1783 0.4665 -0.8663
vn -0.1757 0.4678 -0.8662
vn 0.0000 0.4730 -0.8810
vn 0.0000 0.4736 -0.8808
vn 0.1757 0.4678 -0.8662
vn 0.1783 0.4665 -0.8663
vn 0.3300 0.4524 -0.8285
vn 0.3320 0.4501 -0.8290
vn 0.4651 0.4307 -0.7734
vn 0.4698 0.4270 -0.7727
vn 0.5953 0.4012 -0.6961
vn 0.6012 0.3963 -0.6939
vn 0.7088 0.3669 -0.6025
vn 0.7156 0.3610 -0.5980
vn 0.8041 0.3294 -0.4949
vn 0.8113 0.3229 -0.4873
vn 0.8799 0.2906 -0.3761
vn 0.8866 0.2839 -0.3651
vn 0.9347 0.2526 -0.2500
vn 0.9400 0.2465 -0.2361
vn 0.9681 0.2184 -0.1231
vn 0.9709 0.2136 -0.1080
vn 0.9813 0.1923 -0.0109
vn 0.9818 0.1901 0.0008
vn 0.9767 0.1690 0.1325
vn 0.9735 0.1666 0.1565
vn 0.9391 0.1423 0.3128
vn 0.9311 0.1412 0.3365
vn 0.8773 0.1219 0.4642
vn 0.8646 0.1218 0.4875
vn 0.7927 0.1054 0.6004
vn 0.7764 0.1063 0.6212
vn 0.6050 0.0813 0.7921
vn 0.5722 0.0803 0.8162
vn 0.4053 0.0584 0.9123
vn 0.3920 0.0598 0.9180
vn 0.2671 0.0501 0.9624
vn 0.2481 0.0504 0.9674
vn 0.0913 0.0391 0.9951
vn 0.0000 1.0000 0.0000
vn 0.0853 0.0394 0.9956
vn 0.0369 0.0369 0.9986
vn 0.0356 0.0371 0.9987
vn 0.0000 0.0371 0.9993
usemtl None
s 1
f 1/1/1 4/2/2 3/3/3
f 3/3/3 6/4/4 5/5/5
f 5/5/5 8/6/6 7/7/7
f 7/7/7 10/8/8 9/9/9
f 9/9/9 12/10/10 11/11/11
f 11/11/11 14/12/12 13/13/13
f 13/14/13 16/15/14 15/16/15
f 15/16/15 18/17/16 17/18/17
f 17/18/17 20/19/18 19/20/19
f 19/20/19 22/21/20 21/22/21
f 21/22/21 24/23/22 23/24/23
f 23/24/23 26/25/24 25/26/25
f 25/26/25 28/27/26 27/28/27
f 27/28/27 30/29/28 29/30/29
f 29/30/29 32/31/30 31/32/31
f 31/33/31 34/34/32 33/35/33
f 33/35/33 36/36/34 35/37/35
f 35/37/35 38/38/36 37/39/37
f 37/39/37 40/40/38 39/41/39
f 39/41/39 42/42/40 41/43/41
f 42/42/40 43/44/42 41/43/41
f 44/45/43 45/46/44 43/44/42
f 46/47/45 47/48/46 45/46/44
f 48/49/47 49/50/48 47/48/46
f 50/51/49 51/52/50 49/50/48
f 52/53/51 53/54/52 51/55/50
f 54/56/53 55/57/54 53/54/52
f 56/58/55 57/59/56 55/57/54
f 58/60/57 59/61/58 57/59/56
f 60/62/59 61/63/60 59/61/58
f 62/64/61 63/65/62 61/63/60
f 64/66/63 65/67/64 63/65/62
f 66/68/65 67/69/66 65/67/64
f 68/70/67 69/71/68 67/69/66
f 70/72/69 71/73/70 69/71/68
f 72/74/71 73/75/72 71/76/70
f 74/77/73 75/78/74 73/75/72
f 76/79/75 77/80/76 75/78/74
f 46/81/77 38/82/77 2/83/77
f 78/84/78 79/85/79 77/80/76
f 80/86/80 1/1/1 79/85/79
f 1/1/1 2/87/81 4/2/2
f 3/3/3 4/2/2 6/4/4
f 5/5/5 6/4/4 8/6/6
f 7/7/7 8/6/6 10/8/8
f 9/9/9 10/8/8 12/10/10
f 11/11/11 12/10/10 14/12/12
f 13/14/13 14/88/12 16/15/14
f 15/16/15 16/15/14 18/17/16
f 17/18/17 18/17/16 20/19/18
f 19/20/19 20/19/18 22/21/20
f 21/22/21 22/21/20 24/23/22
f 23/24/23 24/23/22 26/25/24
f 25/26/25 26/25/24 28/27/26
f 27/28/27 28/27/26 30/29/28
f 29/30/29 30/29/28 32/31/30
f 31/33/31 32/89/30 34/34/32
f 33/35/33 34/34/32 36/36/34
f 35/37/35 36/36/34 38/38/36
f 37/39/37 38/38/36 40/40/38
f 39/41/39 40/40/38 42/42/40
f 42/42/40 44/45/43 43/44/42
f 44/45/43 46/47/45 45/46/44
f 46/47/45 48/49/47 47/48/46
f 48/49/47 50/51/49 49/50/48
f 50/51/49 52/90/51 51/52/50
f 52/53/51 54/56/53 53/54/52
f 54/56/53 56/58/55 55/57/54
f 56/58/55 58/60/57 57/59/56
f 58/60/57 60/62/59 59/61/58
f 60/62/59 62/64/61 61/63/60
f 62/64/61 64/66/63 63/65/62
f 64/66/63 66/68/65 65/67/64
f 66/68/65 68/70/67 67/69/66
f 68/70/67 70/72/69 69/71/68
f 70/72/69 72/91/71 71/73/70
f 72/74/71 74/77/73 73/75/72
f 74/77/73 76/79/75 75/78/74
f 76/79/75 78/84/78 77/80/76
f 6/92/77 4/93/77 22/94/77
f 4/93/77 2/83/77 30/95/77
f 34/96/77 2/83/77 36/97/77
f 2/83/77 80/98/77 54/99/77
f 80/98/77 78/100/77 62/101/77
f 54/99/77 80/98/77 56/102/77
f 78/100/77 76/103/77 74/104/77
f 74/104/77 72/105/77 70/106/77
f 70/106/77 68/107/77 74/104/77
f 68/107/77 66/108/77 74/104/77
f 66/108/77 64/109/77 74/104/77
f 64/109/77 62/101/77 74/104/77
f 62/101/77 60/110/77 80/98/77
f 60/110/77 58/111/77 80/98/77
f 58/111/77 56/102/77 80/98/77
f 54/99/77 52/112/77 2/83/77
f 52/112/77 50/113/77 2/83/77
f 50/113/77 48/114/77 2/83/77
f 48/114/77 46/81/77 2/83/77
f 46/81/77 44/115/77 38/82/77
f 44/115/77 42/116/77 40/117/77
f 38/82/77 44/115/77 40/117/77
f 38/82/77 36/97/77 2/83/77
f 34/96/77 32/118/77 2/83/77
f 32/118/77 30/95/77 2/83/77
f 30/95/77 28/119/77 4/93/77
f 28/119/77 26/120/77 4/93/77
f 26/120/77 24/121/77 4/93/77
f 24/121/77 22/94/77 4/93/77
f 22/94/77 20/122/77 10/123/77
f 20/122/77 18/124/77 10/123/77
f 18/124/77 16/125/77 10/123/77
f 16/125/77 14/126/77 10/123/77
f 14/126/77 12/127/77 10/123/77
f 10/123/77 8/128/77 6/92/77
f 78/100/77 74/104/77 62/101/77
f 10/123/77 6/92/77 22/94/77
f 78/84/78 80/86/80 79/85/79
f 80/86/80 2/87/81 1/1/1
